<mxfile host="65bd71144e">
    <diagram id="2Gi2SgLV3IbY2yPotFuB" name="Page-1">
        <mxGraphModel dx="2082" dy="778" grid="1" gridSize="10" guides="1" tooltips="1" connect="1" arrows="1" fold="1" page="1" pageScale="1" pageWidth="850" pageHeight="1100" math="0" shadow="0">
            <root>
                <mxCell id="0"/>
                <mxCell id="1" parent="0"/>
                <mxCell id="3" value="Overview Page" style="text;html=1;strokeColor=none;fillColor=none;align=center;verticalAlign=middle;whiteSpace=wrap;rounded=0;" vertex="1" parent="1">
                    <mxGeometry x="770" y="70" width="165" height="30" as="geometry"/>
                </mxCell>
                <mxCell id="34" value="" style="group;fontStyle=1" vertex="1" connectable="0" parent="1">
                    <mxGeometry x="427.5" y="100" width="850" height="650" as="geometry"/>
                </mxCell>
                <mxCell id="2" value="" style="rounded=0;whiteSpace=wrap;html=1;" vertex="1" parent="34">
                    <mxGeometry width="850" height="650" as="geometry"/>
                </mxCell>
                <mxCell id="4" value="" style="whiteSpace=wrap;html=1;" vertex="1" parent="34">
                    <mxGeometry x="200" y="165" width="615" height="385" as="geometry"/>
                </mxCell>
                <mxCell id="5" value="" style="whiteSpace=wrap;html=1;" vertex="1" parent="34">
                    <mxGeometry x="30" y="90" width="160" height="460" as="geometry"/>
                </mxCell>
                <mxCell id="6" value="&lt;div style=&quot;text-align: left; font-size: 16px;&quot;&gt;&lt;span style=&quot;background-color: initial;&quot;&gt;&lt;font style=&quot;font-size: 16px;&quot;&gt;Featured Item&lt;/font&gt;&lt;/span&gt;&lt;/div&gt;Goal Completion [=====----------]" style="whiteSpace=wrap;html=1;" vertex="1" parent="34">
                    <mxGeometry x="200" y="90" width="615" height="65" as="geometry"/>
                </mxCell>
                <mxCell id="9" value="&lt;div style=&quot;text-align: justify;&quot;&gt;&lt;span style=&quot;background-color: initial;&quot;&gt;&lt;font style=&quot;font-size: 17px;&quot;&gt;User&lt;/font&gt;&lt;/span&gt;&lt;/div&gt;" style="ellipse;whiteSpace=wrap;html=1;aspect=fixed;fontSize=20;fontStyle=0" vertex="1" parent="34">
                    <mxGeometry x="770" y="27.5" width="45" height="45" as="geometry"/>
                </mxCell>
                <mxCell id="11" value="Filters" style="text;html=1;strokeColor=none;fillColor=none;align=center;verticalAlign=middle;whiteSpace=wrap;rounded=0;" vertex="1" parent="34">
                    <mxGeometry x="30" y="90" width="150" height="30" as="geometry"/>
                </mxCell>
                <mxCell id="16" value="" style="group" vertex="1" connectable="0" parent="34">
                    <mxGeometry x="47.5" y="120" width="120" height="150" as="geometry"/>
                </mxCell>
                <mxCell id="10" value="" style="rounded=0;whiteSpace=wrap;html=1;fontSize=12;" vertex="1" parent="16">
                    <mxGeometry width="120" height="150" as="geometry"/>
                </mxCell>
                <mxCell id="12" value="Creator" style="text;html=1;strokeColor=none;fillColor=none;align=center;verticalAlign=middle;whiteSpace=wrap;rounded=0;" vertex="1" parent="16">
                    <mxGeometry x="2.5" y="5" width="110" height="30" as="geometry"/>
                </mxCell>
                <mxCell id="13" value="Jake" style="shape=parallelogram;perimeter=parallelogramPerimeter;whiteSpace=wrap;html=1;fixedSize=1;fontSize=12;" vertex="1" parent="16">
                    <mxGeometry x="7.5" y="45" width="105" height="15" as="geometry"/>
                </mxCell>
                <mxCell id="14" value="Sophie" style="shape=parallelogram;perimeter=parallelogramPerimeter;whiteSpace=wrap;html=1;fixedSize=1;fontSize=12;" vertex="1" parent="16">
                    <mxGeometry x="7.5" y="77.5" width="105" height="15" as="geometry"/>
                </mxCell>
                <mxCell id="15" value="Shared" style="shape=parallelogram;perimeter=parallelogramPerimeter;whiteSpace=wrap;html=1;fixedSize=1;fontSize=12;" vertex="1" parent="16">
                    <mxGeometry x="7.5" y="110" width="105" height="15" as="geometry"/>
                </mxCell>
                <mxCell id="18" value="" style="group" vertex="1" connectable="0" parent="34">
                    <mxGeometry x="47.5" y="290" width="120" height="150" as="geometry"/>
                </mxCell>
                <mxCell id="19" value="" style="rounded=0;whiteSpace=wrap;html=1;fontSize=12;" vertex="1" parent="18">
                    <mxGeometry width="120" height="150" as="geometry"/>
                </mxCell>
                <mxCell id="20" value="Sort" style="text;html=1;strokeColor=none;fillColor=none;align=center;verticalAlign=middle;whiteSpace=wrap;rounded=0;" vertex="1" parent="18">
                    <mxGeometry x="2.5" y="5" width="110" height="30" as="geometry"/>
                </mxCell>
                <mxCell id="21" value="Tier" style="shape=parallelogram;perimeter=parallelogramPerimeter;whiteSpace=wrap;html=1;fixedSize=1;fontSize=12;" vertex="1" parent="18">
                    <mxGeometry x="7.5" y="45" width="105" height="15" as="geometry"/>
                </mxCell>
                <mxCell id="22" value="&lt;font style=&quot;font-size: 10px;&quot;&gt;Price: Low-High&lt;/font&gt;" style="shape=parallelogram;perimeter=parallelogramPerimeter;whiteSpace=wrap;html=1;fixedSize=1;fontSize=12;" vertex="1" parent="18">
                    <mxGeometry x="7.5" y="77.5" width="105" height="15" as="geometry"/>
                </mxCell>
                <mxCell id="23" value="&lt;font style=&quot;font-size: 10px;&quot;&gt;Price: High-Low&lt;/font&gt;" style="shape=parallelogram;perimeter=parallelogramPerimeter;whiteSpace=wrap;html=1;fixedSize=1;fontSize=12;" vertex="1" parent="18">
                    <mxGeometry x="7.5" y="110" width="105" height="15" as="geometry"/>
                </mxCell>
                <mxCell id="25" value="&lt;font style=&quot;font-size: 20px;&quot;&gt;Saving App&lt;/font&gt;" style="rounded=1;whiteSpace=wrap;html=1;fontSize=16;fontStyle=1" vertex="1" parent="34">
                    <mxGeometry x="30" y="20" width="160" height="60" as="geometry"/>
                </mxCell>
                <mxCell id="60" value="&lt;div style=&quot;text-align: justify;&quot;&gt;&lt;span style=&quot;background-color: initial;&quot;&gt;&lt;font size=&quot;1&quot; style=&quot;&quot;&gt;&lt;span style=&quot;font-size: 39px;&quot;&gt;+&lt;/span&gt;&lt;/font&gt;&lt;/span&gt;&lt;/div&gt;" style="ellipse;whiteSpace=wrap;html=1;aspect=fixed;fontSize=20;fontStyle=0;fillColor=#ffcd28;gradientColor=#ffa500;strokeColor=#d79b00;" vertex="1" parent="34">
                    <mxGeometry x="740" y="480" width="45" height="45" as="geometry"/>
                </mxCell>
            </root>
        </mxGraphModel>
    </diagram>
</mxfile>